<mxfile host="app.diagrams.net" agent="Mozilla/5.0 (Macintosh; Intel Mac OS X 10_15_7) AppleWebKit/605.1.15 (KHTML, like Gecko) Version/17.6 Safari/605.1.15" version="26.0.11">
  <diagram name="Page-1" id="qvumIBCjTK7F1NlH57mU">
    <mxGraphModel dx="954" dy="543" grid="1" gridSize="10" guides="1" tooltips="1" connect="1" arrows="1" fold="1" page="1" pageScale="1" pageWidth="827" pageHeight="1169" math="0" shadow="0">
      <root>
        <mxCell id="0" />
        <mxCell id="1" parent="0" />
        <mxCell id="WhB6yUMI64Khz8tYZPFA-3" style="edgeStyle=orthogonalEdgeStyle;rounded=0;orthogonalLoop=1;jettySize=auto;html=1;entryX=0;entryY=0.5;entryDx=0;entryDy=0;" parent="1" source="WhB6yUMI64Khz8tYZPFA-1" target="WhB6yUMI64Khz8tYZPFA-2" edge="1">
          <mxGeometry relative="1" as="geometry" />
        </mxCell>
        <mxCell id="WhB6yUMI64Khz8tYZPFA-1" value="On premise infra" style="rounded=1;whiteSpace=wrap;html=1;" parent="1" vertex="1">
          <mxGeometry x="40" y="50" width="120" height="60" as="geometry" />
        </mxCell>
        <mxCell id="WhB6yUMI64Khz8tYZPFA-2" value="Virtual Private Gateway (VGW)" style="rounded=1;whiteSpace=wrap;html=1;" parent="1" vertex="1">
          <mxGeometry x="260" y="50" width="120" height="60" as="geometry" />
        </mxCell>
        <mxCell id="WhB6yUMI64Khz8tYZPFA-4" value="AWS VPN" style="text;html=1;align=center;verticalAlign=middle;resizable=0;points=[];autosize=1;strokeColor=none;fillColor=none;" parent="1" vertex="1">
          <mxGeometry x="170" y="50" width="80" height="30" as="geometry" />
        </mxCell>
        <mxCell id="WhB6yUMI64Khz8tYZPFA-6" value="AWS Cloud&amp;nbsp;&lt;div&gt;(VPC)&lt;/div&gt;" style="ellipse;shape=cloud;whiteSpace=wrap;html=1;" parent="1" vertex="1">
          <mxGeometry x="500" y="40" width="120" height="80" as="geometry" />
        </mxCell>
        <mxCell id="WhB6yUMI64Khz8tYZPFA-7" style="edgeStyle=orthogonalEdgeStyle;rounded=0;orthogonalLoop=1;jettySize=auto;html=1;entryX=0.075;entryY=0.5;entryDx=0;entryDy=0;entryPerimeter=0;" parent="1" source="WhB6yUMI64Khz8tYZPFA-2" target="WhB6yUMI64Khz8tYZPFA-6" edge="1">
          <mxGeometry relative="1" as="geometry" />
        </mxCell>
        <mxCell id="WhB6yUMI64Khz8tYZPFA-10" value="&lt;font style=&quot;font-size: 10px;&quot;&gt;(Connection secured)&lt;/font&gt;" style="text;html=1;align=center;verticalAlign=middle;resizable=0;points=[];autosize=1;strokeColor=none;fillColor=none;" parent="1" vertex="1">
          <mxGeometry x="390" y="50" width="120" height="30" as="geometry" />
        </mxCell>
        <mxCell id="WhB6yUMI64Khz8tYZPFA-11" value="Amazon S3 Storage" style="shape=cylinder3;whiteSpace=wrap;html=1;boundedLbl=1;backgroundOutline=1;size=15;" parent="1" vertex="1">
          <mxGeometry x="520" y="150" width="80" height="80" as="geometry" />
        </mxCell>
        <mxCell id="WhB6yUMI64Khz8tYZPFA-12" style="edgeStyle=orthogonalEdgeStyle;rounded=0;orthogonalLoop=1;jettySize=auto;html=1;entryX=0.5;entryY=0;entryDx=0;entryDy=0;entryPerimeter=0;exitX=0.55;exitY=0.95;exitDx=0;exitDy=0;exitPerimeter=0;" parent="1" source="WhB6yUMI64Khz8tYZPFA-6" target="WhB6yUMI64Khz8tYZPFA-11" edge="1">
          <mxGeometry relative="1" as="geometry">
            <mxPoint x="520" y="118" as="sourcePoint" />
          </mxGeometry>
        </mxCell>
        <mxCell id="WhB6yUMI64Khz8tYZPFA-13" value="&lt;blockquote style=&quot;margin: 0px 0px 0px 40px; border: medium; padding: 0px;&quot;&gt;&lt;/blockquote&gt;&lt;blockquote style=&quot;margin: 0px 0px 0px 40px; border: medium; padding: 0px;&quot;&gt;- Enabling S3 versioning for version control.&lt;div&gt;- Use AWS KMS for data in rest encryption.&lt;/div&gt;&lt;div&gt;- Automatic scaling.&lt;/div&gt;&lt;/blockquote&gt;" style="text;html=1;align=left;verticalAlign=middle;whiteSpace=wrap;rounded=0;" parent="1" vertex="1">
          <mxGeometry x="570" y="170" width="210" height="30" as="geometry" />
        </mxCell>
        <mxCell id="WhB6yUMI64Khz8tYZPFA-21" style="edgeStyle=orthogonalEdgeStyle;rounded=0;orthogonalLoop=1;jettySize=auto;html=1;entryX=1;entryY=0.5;entryDx=0;entryDy=0;" parent="1" source="WhB6yUMI64Khz8tYZPFA-14" target="WhB6yUMI64Khz8tYZPFA-20" edge="1">
          <mxGeometry relative="1" as="geometry" />
        </mxCell>
        <mxCell id="WhB6yUMI64Khz8tYZPFA-14" value="AWS Lambda" style="label;whiteSpace=wrap;html=1;align=center;verticalAlign=bottom;spacingLeft=0;spacingBottom=4;imageAlign=center;imageVerticalAlign=top;image=img/clipart/Gear_128x128.png" parent="1" vertex="1">
          <mxGeometry x="500" y="325" width="120" height="80" as="geometry" />
        </mxCell>
        <mxCell id="WhB6yUMI64Khz8tYZPFA-17" value="Execute function to archive file into zip folder" style="text;html=1;align=center;verticalAlign=middle;whiteSpace=wrap;rounded=0;" parent="1" vertex="1">
          <mxGeometry x="620" y="350" width="170" height="30" as="geometry" />
        </mxCell>
        <mxCell id="WhB6yUMI64Khz8tYZPFA-19" value="&lt;font style=&quot;font-size: 10px;&quot;&gt;- Trigger lambda when new upload.&lt;/font&gt;&lt;div style=&quot;&quot;&gt;&lt;font style=&quot;font-size: 10px;&quot;&gt;- Store the archive file back to storage.&lt;/font&gt;&lt;/div&gt;" style="text;html=1;align=left;verticalAlign=middle;whiteSpace=wrap;rounded=0;" parent="1" vertex="1">
          <mxGeometry x="570" y="260" width="190" height="30" as="geometry" />
        </mxCell>
        <mxCell id="WhB6yUMI64Khz8tYZPFA-23" style="edgeStyle=orthogonalEdgeStyle;rounded=0;orthogonalLoop=1;jettySize=auto;html=1;" parent="1" source="WhB6yUMI64Khz8tYZPFA-20" target="WhB6yUMI64Khz8tYZPFA-22" edge="1">
          <mxGeometry relative="1" as="geometry">
            <mxPoint x="200" y="365" as="targetPoint" />
          </mxGeometry>
        </mxCell>
        <mxCell id="WhB6yUMI64Khz8tYZPFA-20" value="AWS CloudFront" style="shape=parallelogram;perimeter=parallelogramPerimeter;whiteSpace=wrap;html=1;fixedSize=1;" parent="1" vertex="1">
          <mxGeometry x="300" y="335" width="120" height="60" as="geometry" />
        </mxCell>
        <mxCell id="WhB6yUMI64Khz8tYZPFA-22" value="Global End User" style="shape=umlActor;verticalLabelPosition=bottom;verticalAlign=top;html=1;outlineConnect=0;" parent="1" vertex="1">
          <mxGeometry x="40" y="335" width="30" height="60" as="geometry" />
        </mxCell>
        <mxCell id="WhB6yUMI64Khz8tYZPFA-24" value="&lt;blockquote style=&quot;margin: 0px 0px 0px 40px; border: medium; padding: 0px;&quot;&gt;- Content Delivery Network (CDN) for global distribution.&lt;div&gt;- Use AWS IAM for access control to govern file access.&lt;/div&gt;&lt;/blockquote&gt;" style="text;html=1;align=left;verticalAlign=middle;whiteSpace=wrap;rounded=0;" parent="1" vertex="1">
          <mxGeometry x="240" y="420" width="230" height="30" as="geometry" />
        </mxCell>
        <mxCell id="WhB6yUMI64Khz8tYZPFA-26" value="&lt;font style=&quot;font-size: 10px;&quot;&gt;Use Transport Layer Security (TLS) to secure data in transit using encryption&lt;/font&gt;" style="text;html=1;align=center;verticalAlign=middle;whiteSpace=wrap;rounded=0;" parent="1" vertex="1">
          <mxGeometry x="100" y="325" width="190" height="30" as="geometry" />
        </mxCell>
        <mxCell id="WhB6yUMI64Khz8tYZPFA-28" value="" style="endArrow=classic;startArrow=classic;html=1;rounded=0;entryX=0.5;entryY=1;entryDx=0;entryDy=0;entryPerimeter=0;exitX=0.5;exitY=0;exitDx=0;exitDy=0;" parent="1" source="WhB6yUMI64Khz8tYZPFA-14" target="WhB6yUMI64Khz8tYZPFA-11" edge="1">
          <mxGeometry width="50" height="50" relative="1" as="geometry">
            <mxPoint x="310" y="310" as="sourcePoint" />
            <mxPoint x="360" y="260" as="targetPoint" />
          </mxGeometry>
        </mxCell>
      </root>
    </mxGraphModel>
  </diagram>
</mxfile>
